# xmcd
#
# Track frame offsets:
#	150
#	25272
#	51749
#	71622
#	97514
#	120443
#	143401
#	161464
#	185264
#	206659
#	226932
#	243873
#	262587
#	280735
#	297962
#	321421
#	340949
#
# Disc length: 4788 seconds
#
# Revision: 0
# Processed by: cddbd v1.5PL3 Copyright (c) Steve Scherf et al.
# Submitted via: dBpowerAMP V4.0
#
DISCID=e712b211
DTITLE=My Tam - Uoc gi 1
DYEAR=1900
DGENRE=Vietnamese
TTITLE0=Uoc gi
TTITLE1=Bon mua va em
TTITLE2=Trai tim mong manh
TTITLE3=Loi nguyen cau trong dem
TTITLE4=Tra lai tinh dau
TTITLE5=Khong con yeu
TTITLE6=Nu tinh
TTITLE7=Ngayt ho tinh dau
TTITLE8=Roi khi nho nhau
TTITLE9=Thoat ly
TTITLE10=Khi anh noi loi chia tay
TTITLE11=Tu gia mua dong
TTITLE12=Le loi cuoc tinh
TTITLE13=Hai giong song thuy tinh
TTITLE14=Yeu dau da ve
TTITLE15=XIn doi cho co doi
TTITLE16=Bang lang tim
EXTD=My Tam_ Uoc gi 1
EXTT0=
EXTT1=
EXTT2=
EXTT3=
EXTT4=
EXTT5=
EXTT6=
EXTT7=
EXTT8=
EXTT9=
EXTT10=
EXTT11=
EXTT12=
EXTT13=
EXTT14=
EXTT15=
EXTT16=
PLAYORDER=
